<?xml version="1.0" standalone="no"?><svg xmlns="http://www.w3.org/2000/svg" viewBox="0 0 1440 320"><path fill=" #F1F3CE" fill-opacity="1" d="M0,160L26.7,181.3C53.3,203,107,245,160,234.7C213.3,224,267,160,320,160C373.3,160,427,224,480,250.7C533.3,277,587,267,640,256C693.3,245,747,235,800,229.3C853.3,224,907,224,960,240C1013.3,256,1067,288,1120,293.3C1173.3,299,1227,277,1280,256C1333.3,235,1387,213,1413,202.7L1440,192L1440,320L1413.3,320C1386.7,320,1333,320,1280,320C1226.7,320,1173,320,1120,320C1066.7,320,1013,320,960,320C906.7,320,853,320,800,320C746.7,320,693,320,640,320C586.7,320,533,320,480,320C426.7,320,373,320,320,320C266.7,320,213,320,160,320C106.7,320,53,320,27,320L0,320Z"></path></svg>